<?xml version="1.0" encoding="UTF-8"?>
<!DOCTYPE svg PUBLIC "-//W3C//DTD SVG 1.1//EN" "http://www.w3.org/Graphics/SVG/1.1/DTD/svg11.dtd">
<!-- Creator: CorelDRAW X8 -->
<svg xmlns="http://www.w3.org/2000/svg" xml:space="preserve" width="72.1905mm" height="32.7577mm" version="1.1" style="shape-rendering:geometricPrecision; text-rendering:geometricPrecision; image-rendering:optimizeQuality; fill-rule:evenodd; clip-rule:evenodd"
viewBox="0 0 14111 6403"
 xmlns:xlink="http://www.w3.org/1999/xlink">
 <defs>
  <style type="text/css">
   <![CDATA[
    .fil11 {fill:#0B77B9}
    .fil1 {fill:#1571B8}
    .fil3 {fill:#1870B7}
    .fil17 {fill:#1D5F96}
    .fil7 {fill:#236CB3}
    .fil13 {fill:#2A5586}
    .fil5 {fill:#2E65AE}
    .fil14 {fill:#30508B}
    .fil6 {fill:#3066AF}
    .fil8 {fill:#3067AF}
    .fil15 {fill:#314D84}
    .fil4 {fill:#3462AC}
    .fil9 {fill:#3663AC}
    .fil10 {fill:#3A5FAA}
    .fil19 {fill:#3B5EA9}
    .fil16 {fill:#3C5FA9}
    .fil12 {fill:#3E5CA8}
    .fil18 {fill:#F3F3F3}
    .fil2 {fill:#F6F5F5}
    .fil0 {fill:#FEFEFE}
   ]]>
  </style>
 </defs>
 <g id="Capa_x0020_1">
  <metadata id="CorelCorpID_0Corel-Layer"/>
  <g id="_2203758430144">
   <g>
    <path class="fil0" d="M3032 2770l1 1083 337 0c0,-106 -21,-577 19,-629 -18,-246 331,-244 334,-72 28,32 14,-5 26,62l6 630 46 10 284 -2 -2 -759c-12,-92 -38,-135 -53,-205l-129 -117c-111,-28 -218,-57 -337,-19 -123,39 -158,122 -206,141l1 -133 -327 10z"/>
    <path class="fil0" d="M2508 3853l30 1 274 -1 7 -1017 0 -75c-99,0 -250,-16 -339,11 1,186 0,373 0,559 0,76 -33,510 28,522z"/>
    <path class="fil0" d="M2489 2544c72,46 181,112 289,18 78,-68 76,-181 29,-273 -68,-70 -182,-106 -280,-28 -97,77 -75,167 -38,283z"/>
   </g>
   <g>
    <path class="fil1" d="M2807 2289c197,-9 193,338 21,434 -54,30 -158,12 -224,12l-81 -84c-17,-22 -48,-78 -34,-107 -37,-116 -59,-206 38,-283 98,-78 212,-42 280,28zm-701 1887c29,-96 158,-164 235,-264l35 -48c21,-29 19,-6 31,-51 16,31 13,120 73,171 34,29 -15,22 78,26l-28 -26c-23,-24 -6,-3 -24,-27 -13,-17 -20,-34 -26,-51 45,-23 17,2 28,-53 -61,-12 -28,-446 -28,-522 0,-186 1,-373 0,-559 89,-27 240,-11 339,-11l0 75 14 -3c15,-35 -3,-22 30,-26 86,91 89,136 92,291 2,137 3,274 3,410 34,-31 57,-108 64,-161 18,-130 -9,-485 10,-577l327 -10 -1 133c48,-19 83,-102 206,-141 119,-38 226,-9 337,19l17 -55c-71,-2 -138,-9 -186,-30 76,0 154,22 192,3 -76,-7 -35,11 -66,-40l261 -286c72,-72 212,-235 289,-274 -170,-246 -673,-460 -1042,-478 -488,-23 -858,170 -1120,402 -234,207 -467,551 -509,1015 -40,438 138,938 369,1148z"/>
    <path class="fil1" d="M9997 3567l143 5 5 -907c-187,-15 -151,-55 -151,368 0,160 -12,380 3,534z"/>
   </g>
   <g>
    <path class="fil2" d="M9997 3567c-15,-154 -3,-374 -3,-534 0,-423 -36,-383 151,-368l-5 907 -143 -5zm-3614 -717l154 6 -5 717 -149 -4 0 -719zm-574 -189l142 3c36,208 -32,610 16,792l298 1 -8 117 -455 -4 7 -909zm3840 -60l152 4 -6 967 -142 1 -8 -117c-140,222 -594,162 -587,-258 5,-352 389,-476 589,-239l2 -358zm-5241 -512c273,213 462,751 440,1158 -13,235 -72,440 -165,624 -276,546 -847,905 -1533,851 -234,-18 -433,-92 -609,-186 -104,-55 -385,-251 -435,-360 -231,-210 -409,-710 -369,-1148 42,-464 275,-808 509,-1015 262,-232 632,-425 1120,-402 369,18 872,232 1042,478zm4524 1269c-17,156 -248,277 -455,206 -162,-56 -261,-234 -216,-452 81,-391 742,-394 698,152l-550 0c15,125 89,211 235,188 154,-24 31,-114 288,-94zm1561 -414c130,-126 322,-162 452,6 69,90 76,491 45,622l-135 -3c-35,-226 90,-606 -191,-599 -257,7 -157,391 -178,601l-147 -3 0 -716 149 -3 5 95zm-3609 0c119,-137 332,-155 453,6 72,96 69,480 46,624l-138 -2c-36,-225 88,-606 -189,-601 -271,6 -142,392 -184,603l-144 -3 0 -721 151 -1 5 95zm692 -340l154 3 6 537c69,-69 199,-217 244,-296l209 9 -315 358c46,67 113,127 159,181 54,64 116,105 155,174 -310,31 -165,-36 -456,-287l-7 290 -149 -5 0 -964zm-1168 -22c135,-83 196,111 108,161 -123,71 -212,-98 -108,-161zm-4890 1703c127,159 202,290 352,408 626,497 934,507 1793,507l6140 7c1016,0 2067,27 3078,-1 169,-20 215,-14 358,-61 407,-132 719,-460 831,-874 60,-223 36,-990 36,-1255 0,-515 63,-1008 -310,-1394 -419,-434 -702,-426 -1279,-426 -1136,0 -2273,0 -3409,0 -1127,0 -2286,-26 -3409,1l-1134 1c-316,-3 -1406,-15 -1654,22 -864,126 -1572,811 -1691,1703 -74,558 57,918 298,1362z"/>
    <path class="fil2" d="M9380 2981c-281,80 -187,530 104,463 268,-61 185,-545 -104,-463z"/>
   </g>
   <path class="fil3" d="M254 4458c76,-39 713,-685 764,-744 50,-58 63,-46 127,-82l36 114c12,21 8,-22 17,34 0,1 0,6 0,7 0,2 -1,6 -2,8l-2 18c-15,199 -61,158 54,129 5,63 43,117 67,167 25,8 -15,9 36,-12 3,-1 9,-4 13,-6 12,84 0,13 21,63 1,1 22,45 27,56 25,51 42,65 61,107 18,-47 -4,-17 45,-32 -241,-444 -372,-804 -298,-1362 119,-892 827,-1577 1691,-1703 248,-37 1338,-25 1654,-22 63,-55 361,-31 374,-20l-149 0c23,-87 34,-58 78,-99 52,-49 -31,45 18,-32 23,-37 -5,-22 20,-18 -34,0 -75,-5 -105,4l-79 44c-2,-5 -4,-12 -4,-15 -1,-2 -3,-10 -4,-13l-153 -23c30,-93 177,-209 243,-277l109 -108c55,-54 47,-58 107,-86 -54,-18 -134,-81 -189,-113 -353,-213 -773,-356 -1191,-414 -360,-50 -819,-33 -1172,56 -193,49 -316,89 -488,157 -362,143 -863,478 -1134,785 -699,793 -1021,1863 -751,2944 36,144 101,359 159,488z"/>
   <path class="fil4" d="M254 4458c56,98 80,184 179,349 215,357 415,594 736,869 149,127 492,345 657,418 255,114 500,201 818,258 929,169 1816,-95 2494,-603 174,-129 427,-356 544,-532 705,0 7113,27 7199,-11 -1011,28 -2062,1 -3078,1l-6140 -7c-859,0 -1167,-10 -1793,-507 -150,-118 -225,-249 -352,-408 -49,15 -27,-15 -45,32 -19,-42 -36,-56 -61,-107 -5,-11 -26,-55 -27,-56 -21,-50 -9,21 -21,-63 -4,2 -10,5 -13,6 -51,21 -11,20 -36,12 -24,-50 -62,-104 -67,-167 -115,29 -69,70 -54,-129l2 -18c1,-2 2,-6 2,-8 0,-1 0,-6 0,-7 -9,-56 -5,-13 -17,-34l-36 -114c-64,36 -77,24 -127,82 -51,59 -688,705 -764,744z"/>
   <path class="fil5" d="M3901 2771l129 117c24,-24 -18,-30 30,-19 27,60 50,45 86,128 21,48 39,104 46,169 13,130 5,296 5,430 0,127 17,302 -82,351 -38,18 -246,69 -314,-93l-46 -10 -6 -630c-12,-67 2,-30 -26,-62l-21 23c-15,-7 -2,-7 -42,-13 -40,-6 -83,4 -118,30 -194,148 98,707 -201,772 -178,40 -247,-83 -252,-87 91,0 209,16 290,-20 17,-135 10,-487 10,-633 -40,52 -19,523 -19,629l-337 0 -1 -1083c-19,92 8,447 -10,577 -7,53 -30,130 -64,161 0,-136 -1,-273 -3,-410 -3,-155 -6,-200 -92,-291 -33,4 -15,-9 -30,26 133,48 100,164 100,332 0,144 0,287 0,431 -1,147 32,297 -80,346 -52,22 -255,64 -315,-88l-30 -1c-11,55 17,30 -28,53 6,17 13,34 26,51 18,24 1,3 24,27l28 26c-93,-4 -44,3 -78,-26 -60,-51 -57,-140 -73,-171 -12,45 -10,22 -31,51l-35 48c-77,100 -206,168 -235,264 50,109 331,305 435,360 176,94 375,168 609,186 686,54 1257,-305 1533,-851 93,-184 152,-389 165,-624 22,-407 -167,-945 -440,-1158 -77,39 -217,202 -289,274l-261 286c31,51 -10,33 66,40 -38,19 -116,-3 -192,-3 48,21 115,28 186,30l-17 55z"/>
   <path class="fil6" d="M4565 1198l1134 -1c-165,-256 -649,-607 -679,-642 -60,28 -52,32 -107,86l-109 108c-66,68 -213,184 -243,277l153 23c1,3 3,11 4,13 0,3 2,10 4,15l79 -44c30,-9 71,-4 105,-4 -25,-4 3,-19 -20,18 -49,77 34,-17 -18,32 -44,41 -55,12 -78,99l149 0c-13,-11 -311,-35 -374,20z"/>
   <path class="fil7" d="M9380 2981c289,-82 372,402 104,463 -291,67 -385,-383 -104,-463zm267 -22c-200,-237 -584,-113 -589,239 -7,420 447,480 587,258l8 117 142 -1 6 -967 -152 -4 -2 358z"/>
   <path class="fil8" d="M8419 3158c-26,-241 398,-263 380,-1l-380 1zm513 200c-257,-20 -134,70 -288,94 -146,23 -220,-63 -235,-188l550 0c44,-546 -617,-543 -698,-152 -45,218 54,396 216,452 207,71 438,-50 455,-206z"/>
   <path class="fil9" d="M7576 3568l149 5 7 -290c291,251 146,318 456,287 -39,-69 -101,-110 -155,-174 -46,-54 -113,-114 -159,-181l315 -358 -209 -9c-45,79 -175,227 -244,296l-6 -537 -154 -3 0 964z"/>
   <path class="fil10" d="M6884 2944l-5 -95 -151 1 0 721 144 3c42,-211 -87,-597 184,-603 277,-5 153,376 189,601l138 2c23,-144 26,-528 -46,-624 -121,-161 -334,-143 -453,-6z"/>
   <path class="fil11" d="M10493 2944l-5 -95 -149 3 0 716 147 3c21,-210 -79,-594 178,-601 281,-7 156,373 191,599l135 3c31,-131 24,-532 -45,-622 -130,-168 -322,-132 -452,-6z"/>
   <path class="fil12" d="M5802 3570l455 4 8 -117 -298 -1c-48,-182 20,-584 -16,-792l-142 -3 -7 909z"/>
   <path class="fil13" d="M2538 3854c60,152 263,110 315,88 112,-49 79,-199 80,-346 0,-144 0,-287 0,-431 0,-168 33,-284 -100,-332l-14 3 -7 1017 -274 1z"/>
   <path class="fil14" d="M3801 3854c68,162 276,111 314,93 99,-49 82,-224 82,-351 0,-134 8,-300 -5,-430 -7,-65 -25,-121 -46,-169 -36,-83 -59,-68 -86,-128 -48,-11 -6,-5 -30,19 15,70 41,113 53,205l2 759 -284 2z"/>
   <path class="fil15" d="M3389 3224c0,146 7,498 -10,633 -81,36 -199,20 -290,20 5,4 74,127 252,87 299,-65 7,-624 201,-772 35,-26 78,-36 118,-30 40,6 27,6 42,13l21 -23c-3,-172 -352,-174 -334,72z"/>
   <polygon class="fil16" points="6383,3569 6532,3573 6537,2856 6383,2850 "/>
   <path class="fil17" d="M2489 2544c-14,29 17,85 34,107l81 84c66,0 170,18 224,-12 172,-96 176,-443 -21,-434 47,92 49,205 -29,273 -108,94 -217,28 -289,-18z"/>
   <path class="fil18" d="M8419 3158l380 -1c18,-262 -406,-240 -380,1z"/>
   <path class="fil19" d="M6408 2582c-104,63 -15,232 108,161 88,-50 27,-244 -108,-161z"/>
  </g>
 </g>
</svg>
