<?xml version="1.0" encoding="UTF-8"?>
<!DOCTYPE svg PUBLIC "-//W3C//DTD SVG 1.1//EN" "http://www.w3.org/Graphics/SVG/1.1/DTD/svg11.dtd">
<!-- Creator: CorelDRAW X8 -->
<svg xmlns="http://www.w3.org/2000/svg" xml:space="preserve" width="31.0645mm" height="31.1449mm" version="1.1" style="shape-rendering:geometricPrecision; text-rendering:geometricPrecision; image-rendering:optimizeQuality; fill-rule:evenodd; clip-rule:evenodd"
viewBox="0 0 865 867"
 xmlns:xlink="http://www.w3.org/1999/xlink">
 <defs>
  <style type="text/css">
   <![CDATA[
    .fil0 {fill:#7B61FF}
   ]]>
  </style>
 </defs>
 <g id="Capa_x0020_1">
  <metadata id="CorelCorpID_0Corel-Layer"/>
  <path class="fil0" d="M198 353l103 -1 0 311 -103 1 0 -311zm264 310l-104 0 0 -310 104 -1 0 41c21,-18 33,-50 97,-48 45,1 76,22 94,50 22,36 21,76 21,122 0,47 2,100 0,146l-103 0c-3,-45 -1,-98 -1,-143 0,-46 -2,-95 -54,-93 -22,1 -37,13 -45,26 -12,20 -9,40 -9,64 0,48 2,99 0,146zm-223 -460c79,-13 94,94 24,106 -82,14 -99,-93 -24,-106zm35 -173c-4,4 -37,18 -46,22 -9,5 -37,24 -44,26 -6,8 -54,41 -84,80 -5,5 -9,10 -13,15l-12 15c-3,10 -15,24 -21,35 -22,41 -38,78 -47,127 -12,72 -8,142 11,209 24,82 79,158 141,208 10,8 21,17 33,25 10,6 29,14 35,22 14,4 51,25 89,35l14 6c12,-1 45,8 61,9 20,2 51,-1 68,3l54 -9 37 -7c5,-5 18,-8 26,-11 9,-3 18,-7 26,-10 18,-8 37,-20 52,-26 4,-5 11,-7 20,-14 22,-15 42,-31 62,-51 18,-18 44,-50 58,-71 4,-7 2,-7 8,-10 4,-14 17,-32 24,-48 3,-8 7,-17 10,-25l7 -19c3,-6 1,-2 4,-6l10 -45c3,-25 7,-43 8,-71 0,-28 -3,-47 -4,-73l-6 -38c-6,-6 -16,-44 -19,-53 -7,-18 -15,-31 -21,-48 -6,-6 -11,-17 -15,-24 -6,-9 -9,-16 -16,-24l-34 -43c-5,-2 -3,-1 -6,-6 -5,-3 -9,-9 -15,-14 -31,-26 -45,-42 -85,-64 -7,-4 -34,-16 -36,-20 -14,-4 -26,-10 -40,-15 -68,-23 -144,-28 -215,-14 -30,5 -54,15 -79,22z"/>
 </g>
</svg>
