<?xml version="1.0" encoding="UTF-8"?>
<!DOCTYPE svg PUBLIC "-//W3C//DTD SVG 1.1//EN" "http://www.w3.org/Graphics/SVG/1.1/DTD/svg11.dtd">
<!-- Creator: CorelDRAW X8 -->
<svg xmlns="http://www.w3.org/2000/svg" xml:space="preserve" width="72.1496mm" height="32.7579mm" version="1.1" style="shape-rendering:geometricPrecision; text-rendering:geometricPrecision; image-rendering:optimizeQuality; fill-rule:evenodd; clip-rule:evenodd"
viewBox="0 0 13691 6216"
 xmlns:xlink="http://www.w3.org/1999/xlink">
 <defs>
  <style type="text/css">
   <![CDATA[
    .fil15 {fill:#363B6B}
    .fil9 {fill:#364B96}
    .fil8 {fill:#365097}
    .fil10 {fill:#383C6F}
    .fil2 {fill:#384894}
    .fil1 {fill:#394792}
    .fil7 {fill:#39569A}
    .fil4 {fill:#3A4492}
    .fil12 {fill:#3C3C86}
    .fil11 {fill:#3C3F8C}
    .fil5 {fill:#3D3D89}
    .fil6 {fill:#3D408F}
    .fil14 {fill:#F2F1F1}
    .fil16 {fill:#F6F2F4}
    .fil0 {fill:#F6F5F5}
    .fil13 {fill:#F7F6F7}
    .fil3 {fill:#FCFEFE}
   ]]>
  </style>
 </defs>
 <g id="Capa_x0020_1">
  <metadata id="CorelCorpID_0Corel-Layer"/>
  <g id="_2238951174032">
   <g>
    <path class="fil0" d="M8840 3400c-13,115 34,108 -149,108l-1 -941 141 2 6 343c42,-29 163,-188 380,-85 114,54 196,165 190,346 -10,303 -328,482 -567,227zm2176 -147c-110,432 -806,319 -694,-189 94,-429 821,-313 694,189zm-4233 -352c3,-4 6,-15 7,-12l25 -78 137 -3 5 698 -147 3 -4 -109c-81,86 -193,168 -364,97 -106,-44 -196,-159 -205,-309 -22,-392 419,-504 546,-287zm3427 336c-83,423 -784,373 -701,-153 69,-441 799,-353 701,153zm-5513 0c-79,787 -779,1442 -1674,1349 -777,-81 -1438,-798 -1335,-1673 90,-770 778,-1432 1661,-1336 780,84 1436,773 1348,1660zm3692 62l133 0c-94,354 -755,290 -656,-233 72,-376 715,-392 679,136l-528 7c-5,105 54,163 138,181 157,35 150,-54 234,-91zm-755 -14l127 1c-84,345 -653,318 -664,-113 -12,-449 575,-507 664,-144 -244,6 -110,-13 -221,-84 -86,-54 -292,-38 -292,211 0,120 42,208 138,233 48,12 103,10 146,-13 84,-44 23,-64 102,-91zm3820 -129l75 89c29,33 46,55 74,88 58,68 109,99 157,172 -201,10 -181,24 -308,-133 -35,-43 -100,-123 -137,-151l-2 285 -143 1 3 -938 135 0 7 532c45,-35 88,-92 126,-139 148,-185 85,-150 317,-153 -31,65 -257,273 -304,347zm-5675 -152l285 1 7 111 -292 6 0 379 -147 7 -1 -878 522 -6 1 114 -372 3 -3 263zm-243 2064l6292 0c458,0 827,34 1151,-118 493,-230 712,-641 712,-1183l0 -1269c0,-255 -5,-369 -77,-549 -179,-443 -609,-788 -1111,-785l-5704 0c-389,0 -895,-28 -1270,3 -521,10 -1051,1 -1574,1 -490,0 -1029,-45 -1470,101 -696,229 -1322,915 -1323,1839 -1,921 620,1611 1319,1843 437,146 989,101 1474,101l1581 16z"/>
    <path class="fil0" d="M9660 3237c59,270 479,183 398,-158 -60,-248 -477,-207 -398,158z"/>
    <path class="fil0" d="M8969 2944c-255,114 -116,538 155,433 251,-97 126,-559 -155,-433z"/>
   </g>
   <path class="fil1" d="M5536 5068l-1581 -16c-485,0 -1037,45 -1474,-101 -699,-232 -1320,-922 -1319,-1843 1,-924 627,-1610 1323,-1839 441,-146 980,-101 1470,-101 523,0 1053,9 1574,-1l-369 -389c-357,-275 -549,-443 -1070,-616 -159,-53 -319,-91 -491,-121 -1149,-197 -2326,331 -2988,1217 -615,822 -778,1858 -434,2897 190,574 567,1037 1027,1415 118,97 231,162 366,244 848,515 2015,531 2931,74 148,-74 248,-140 383,-229 120,-79 236,-173 336,-274l316 -317z"/>
   <path class="fil2" d="M3392 2743l153 12 -5 112 29 -93 89 61c5,69 19,202 -7,261 -75,170 -276,-23 -274,268 3,721 87,773 -307,759 -129,-4 -117,-12 -160,-99 68,-1 298,-8 339,-34 -85,12 -285,18 -368,-4l-5 -922c-65,0 -123,10 -181,-13 -22,-298 -18,-305 86,-308 30,-2 69,1 100,1 -1,-228 -31,-389 113,-516 128,-114 349,-83 550,-82l10 47c32,9 59,20 86,57 42,58 25,221 11,252l-50 69c-169,13 -220,-17 -209,172zm1305 494c88,-887 -568,-1576 -1348,-1660 -883,-96 -1571,566 -1661,1336 -103,875 558,1592 1335,1673 895,93 1595,-562 1674,-1349z"/>
   <path class="fil3" d="M3249 3990c42,-99 -14,-747 18,-926l254 -1 19 -196 5 -112 -153 -12 -132 2c0,-76 -10,-174 12,-236 71,-77 166,-28 278,-50l4 -266 -10 -47c-201,-1 -422,-32 -550,82 -144,127 -114,288 -113,516 -31,0 -70,-3 -100,-1 -104,3 -108,10 -86,308 58,23 116,13 181,13l5 922c83,22 283,16 368,4z"/>
   <path class="fil4" d="M8969 2944c281,-126 406,336 155,433 -271,105 -410,-319 -155,-433zm-129 456c239,255 557,76 567,-227 6,-181 -76,-292 -190,-346 -217,-103 -338,56 -380,85l-6 -343 -141 -2 1 941c183,0 136,7 149,-108z"/>
   <path class="fil5" d="M6522 2940c280,-108 405,342 145,439 -264,99 -399,-340 -145,-439zm261 -39c-127,-217 -568,-105 -546,287 9,150 99,265 205,309 171,71 283,-11 364,-97l4 109 147 -3 -5 -698 -137 3 -25 78c-1,-3 -4,8 -7,12z"/>
   <path class="fil6" d="M8014 3107c28,-254 361,-246 380,0l-380 0zm375 192c-84,37 -77,126 -234,91 -84,-18 -143,-76 -138,-181l528 -7c36,-528 -607,-512 -679,-136 -99,523 562,587 656,233l-133 0z"/>
   <path class="fil7" d="M11454 3156c47,-74 273,-282 304,-347 -232,3 -169,-32 -317,153 -38,47 -81,104 -126,139l-7 -532 -135 0 -3 938 143 -1 2 -285c37,28 102,108 137,151 127,157 107,143 308,133 -48,-73 -99,-104 -157,-172 -28,-33 -45,-55 -74,-88l-75 -89z"/>
   <path class="fil8" d="M10466 3221c-57,-353 355,-399 405,-123 62,343 -360,400 -405,123zm550 32c127,-502 -600,-618 -694,-189 -112,508 584,621 694,189z"/>
   <path class="fil9" d="M9660 3237c-79,-365 338,-406 398,-158 81,341 -339,428 -398,158zm550 0c98,-506 -632,-594 -701,-153 -83,526 618,576 701,153z"/>
   <path class="fil10" d="M3540 2867l-19 196 -254 1c-32,179 24,827 -18,926 -41,26 -271,33 -339,34 43,87 31,95 160,99 394,14 310,-38 307,-759 -2,-291 199,-98 274,-268 26,-59 12,-192 7,-261l-89 -61 -29 93z"/>
   <path class="fil11" d="M7634 3285c-79,27 -18,47 -102,91 -43,23 -98,25 -146,13 -96,-25 -138,-113 -138,-233 0,-249 206,-265 292,-211 111,71 -23,90 221,84 -89,-363 -676,-305 -664,144 11,431 580,458 664,113l-127 -1z"/>
   <polygon class="fil12" points="5782,2741 6154,2738 6153,2624 5631,2630 5632,3508 5779,3501 5779,3122 6071,3116 6064,3005 5779,3004 "/>
   <path class="fil13" d="M10466 3221c45,277 467,220 405,-123 -50,-276 -462,-230 -405,123z"/>
   <path class="fil14" d="M6522 2940c-254,99 -119,538 145,439 260,-97 135,-547 -145,-439z"/>
   <path class="fil15" d="M3392 2743c-11,-189 40,-159 209,-172l50 -69c14,-31 31,-194 -11,-252 -27,-37 -54,-48 -86,-57l-4 266c-112,22 -207,-27 -278,50 -22,62 -12,160 -12,236l132 -2z"/>
   <path class="fil16" d="M8014 3107l380 0c-19,-246 -352,-254 -380,0z"/>
  </g>
 </g>
</svg>
