<?xml version="1.0" encoding="UTF-8"?>
<!DOCTYPE svg PUBLIC "-//W3C//DTD SVG 1.1//EN" "http://www.w3.org/Graphics/SVG/1.1/DTD/svg11.dtd">
<!-- Creator: CorelDRAW X8 -->
<svg xmlns="http://www.w3.org/2000/svg" xml:space="preserve" width="72.185mm" height="32.7522mm" version="1.1" style="shape-rendering:geometricPrecision; text-rendering:geometricPrecision; image-rendering:optimizeQuality; fill-rule:evenodd; clip-rule:evenodd"
viewBox="0 0 15086 6845"
 xmlns:xlink="http://www.w3.org/1999/xlink">
 <defs>
  <style type="text/css">
   <![CDATA[
    .fil15 {fill:#196CA4}
    .fil11 {fill:#237EC1}
    .fil18 {fill:#36AFE4}
    .fil17 {fill:#38A4DB}
    .fil16 {fill:#48C4F1}
    .fil3 {fill:#4CB9E9}
    .fil12 {fill:#507DBE}
    .fil2 {fill:#50B5E7}
    .fil4 {fill:#5180C0}
    .fil10 {fill:#51B7E8}
    .fil5 {fill:#529AD3}
    .fil8 {fill:#52A4DA}
    .fil9 {fill:#548BC8}
    .fil6 {fill:#5495CF}
    .fil13 {fill:#54ABDF}
    .fil0 {fill:#5698D1}
    .fil14 {fill:#56A1D8}
    .fil1 {fill:#F6F3F4}
    .fil19 {fill:#F6F5F5}
    .fil7 {fill:#FEFEFE}
   ]]>
  </style>
 </defs>
 <g id="Capa_x0020_1">
  <metadata id="CorelCorpID_0Corel-Layer"/>
  <g id="_2238955768752">
   <g>
    <polygon class="fil0" points="8145,3872 8305,3872 8300,3099 8144,3100 "/>
    <path class="fil0" d="M8180 2808c-17,8 -92,31 -46,135 18,40 73,75 135,48 110,-47 42,-247 -89,-183z"/>
   </g>
   <path class="fil1" d="M8144 3100l156 -1 5 773 -160 0 -1 -772zm1946 540l140 1c-124,399 -835,310 -721,-260 86,-430 795,-407 747,147 -103,33 -451,9 -586,14 4,105 58,181 161,200 89,17 143,-4 197,-54 52,-48 -14,-20 62,-48zm-5113 -1042c199,302 255,817 151,1215 -206,785 -936,1302 -1744,1241 -343,-26 -893,-251 -1024,-472 -118,-67 -308,-362 -382,-542 -202,-487 -168,-1022 91,-1481 351,-620 1123,-984 1883,-778 408,111 864,442 1025,817zm5596 1274l-158 -2 -1 -767 155 -5 8 113c50,-65 114,-113 229,-124 0,276 -11,109 -157,196 -120,70 -64,381 -76,589zm-1607 -654l-1 -106c58,-32 39,9 91,-35l5 -170 152 1 9 190 179 1 5 134 -185 0c0,114 0,227 -1,340 -2,177 7,163 181,163l5 136c-420,2 -350,-95 -350,-618 -52,-42 -35,-2 -90,-36zm-519 -17c0,-132 6,-102 90,-103l3 -187 157 -2 6 189 181 0 3 135 -184 1c0,113 0,226 -2,339 -2,177 14,163 182,163l5 136c-404,0 -350,-56 -351,-639 -130,0 -65,-8 -90,-32zm-1548 -101l163 -2c46,147 97,455 161,572l85 -277c25,-97 53,-196 80,-292l165 -2 153 596 162 -590 151 -7 -231 773 -170 -1 -150 -545 -158 546 -171 0 -240 -771zm-66 -77l-258 7 -4 843 -158 -5 -2 -843 -259 -9 0 -115 681 -1 0 123zm1347 -215c131,-64 199,136 89,183 -62,27 -117,-8 -135,-48 -46,-104 29,-127 46,-135zm-6757 1384c170,403 368,652 636,881 131,112 283,205 466,294 207,101 406,120 589,176 438,43 2842,-23 2969,29 2537,0 5099,-13 7634,0 576,3 1052,-329 1267,-839 140,-332 96,-878 96,-1302 0,-406 42,-937 -86,-1295 -63,-173 -161,-294 -266,-424 -49,-62 -120,-117 -187,-167 -428,-324 -881,-273 -1479,-273 -2325,0 -4651,0 -6976,0 -82,45 -1699,14 -1942,14 -676,2 -1176,-49 -1722,247 -807,436 -1415,1400 -999,2659z"/>
   <path class="fil2" d="M764 5567l698 -695c-22,-32 -20,-31 -30,-84l37 -33c17,-15 19,-16 33,-33 -12,-48 -24,-48 -27,-90l3 -191c-2,-14 -4,-24 -19,-40l-50 -175c9,-53 -22,6 14,-34 -416,-1259 192,-2223 999,-2659 546,-296 1046,-245 1722,-247 243,0 1860,31 1942,-14l-13 17 -2758 -37c48,-52 235,-69 321,-81 116,-17 279,19 379,-18l-209 -3c88,-147 117,-6 232,-125l741 -744c-201,-103 -592,-201 -822,-238 -1837,-292 -3555,932 -3905,2764 -114,595 -33,1343 179,1865 54,135 391,826 533,895z"/>
   <path class="fil3" d="M2360 4582c66,-64 125,-148 193,-194l-12 -24c-1,-2 -4,-9 -5,-12 -12,-49 12,-14 -3,-98 -27,-145 2,-133 33,-144 -24,-31 -30,-33 -52,-61l161 0c100,-20 -57,20 30,-9 5,-2 11,-5 14,-6 4,-2 10,-4 14,-7l-21 -9c22,-46 -8,-3 57,-50 37,-26 6,4 33,-24 -23,-52 -52,-88 -72,-141 -29,-77 -15,-97 -55,-176 -37,-71 -154,-229 -86,-332l-12 -105 159 45c-136,-146 -205,-297 -113,-533 64,10 25,1 81,34 80,-67 188,27 239,73 110,103 336,240 493,222l35 63c-8,-258 126,-441 358,-471 310,-40 237,179 463,89 23,-9 58,-29 74,-35 92,-32 38,-26 63,7l34 -52 137 54c2,1 6,3 8,4 12,9 12,10 20,27 12,26 16,44 17,88 190,-61 -19,126 239,-139 8,-8 29,-30 35,-35 46,-37 6,-16 58,-33 -161,-375 -617,-706 -1025,-817 -760,-206 -1532,158 -1883,778 -259,459 -293,994 -91,1481 74,180 264,475 382,542z"/>
   <path class="fil4" d="M2409 6687c50,34 179,58 245,74 80,19 173,37 268,51 885,122 1814,-94 2504,-613l263 -215c185,-156 210,-189 362,-364 30,-34 17,-11 32,-48 -127,-52 -2531,14 -2969,-29 30,54 -66,44 41,45l-89 7 14 37c85,44 54,-2 64,55l-50 -3c-79,1 -211,-31 -273,-65 -60,-32 -103,-90 -180,-46 83,43 -20,-31 68,21 57,35 41,61 41,62 3,50 -49,12 18,51 31,17 47,17 81,27 34,11 59,23 89,35 38,14 10,4 55,16 37,11 -4,-8 42,12l49 38c53,50 31,38 102,40l0 31c-56,21 -11,2 -85,73l-19 17c-34,32 -62,59 -97,98 -115,130 -448,428 -539,540 -16,20 -23,32 -37,53z"/>
   <path class="fil5" d="M4429 2684l-39 80 75 -7c111,161 88,185 0,340 -104,184 -10,344 -217,720 -128,234 -406,456 -671,500 -81,14 -128,20 -194,35 -393,90 -794,-139 -660,-170 -34,-39 -103,-64 -157,-72 -31,11 -60,-1 -33,144 15,84 -9,49 3,98 1,3 4,10 5,12l12 24c-68,46 -127,130 -193,194 131,221 681,446 1024,472 808,61 1538,-456 1744,-1241 104,-398 48,-913 -151,-1215 -52,17 -12,-4 -58,33 -6,5 -27,27 -35,35 -258,265 -49,78 -239,139 -1,-44 -5,-62 -17,-88 -8,-17 -8,-18 -20,-27 -2,-1 -6,-3 -8,-4l-137 -54 -34 52z"/>
   <path class="fil6" d="M764 5567c54,95 243,290 331,364l178 158c187,153 418,300 635,409 98,49 390,179 501,189 14,-21 21,-33 37,-53 91,-112 424,-410 539,-540 35,-39 63,-66 97,-98l19 -17c74,-71 29,-52 85,-73l0 -31c-71,-2 -49,10 -102,-40l-49 -38c-46,-20 -5,-1 -42,-12 -45,-12 -17,-2 -55,-16 -30,-12 -55,-24 -89,-35 -34,-10 -50,-10 -81,-27 -67,-39 -15,-1 -18,-51 0,-1 16,-27 -41,-62 -88,-52 15,22 -68,-21 77,-44 120,14 180,46 62,34 194,66 273,65l50 3c-10,-57 21,-11 -64,-55l-14 -37 89 -7c-107,-1 -11,9 -41,-45 -183,-56 -382,-75 -589,-176 -183,-89 -335,-182 -466,-294 -268,-229 -466,-478 -636,-881 -36,40 -5,-19 -14,34l50 175c15,16 17,26 19,40l-3 191c3,42 15,42 27,90 -14,17 -16,18 -33,33l-37 33c10,53 8,52 30,84l-698 695z"/>
   <path class="fil7" d="M3471 3094c-20,27 22,16 -49,14 -1,0 -57,-10 -58,-10 -212,-45 -578,-179 -660,-362 -56,-33 -17,-24 -81,-34 -92,236 -23,387 113,533l-159 -45 12 105c49,144 119,234 259,274 -39,33 -101,33 -119,39 30,126 136,207 248,245 85,30 75,16 107,59 -78,43 -241,129 -351,115 -4,3 -10,5 -14,7 -3,1 -9,4 -14,6 -87,29 70,-11 -30,9l-161 0c22,28 28,30 52,61 54,8 123,33 157,72l316 55c396,15 727,-115 926,-312 198,-196 308,-519 321,-904 69,-34 76,-81 124,-86l68 -123 -177 45 89 -93 39 -80c-25,-33 29,-39 -63,-7 -16,6 -51,26 -74,35 -226,90 -153,-129 -463,-89 -232,30 -366,213 -358,471z"/>
   <path class="fil8" d="M6073 1289c-37,-111 -59,-94 -128,-172 -54,-61 -68,-95 -135,-149 -67,-53 -88,-78 -148,-134 -272,-252 -571,-398 -883,-553l-741 744c-115,119 -144,-22 -232,125l209 3c-100,37 -263,1 -379,18 -86,12 -273,29 -321,81l2758 37z"/>
   <path class="fil9" d="M6899 3100l240 771 171 0 158 -546 150 545 170 1 231 -773 -151 7 -162 590 -153 -596 -165 2c-27,96 -55,195 -80,292l-85 277c-64,-117 -115,-425 -161,-572l-163 2z"/>
   <path class="fil10" d="M10089 3429l-420 -1c42,-270 398,-278 420,1zm1 211c-76,28 -10,0 -62,48 -54,50 -108,71 -197,54 -103,-19 -157,-95 -161,-200 135,-5 483,19 586,-14 48,-554 -661,-577 -747,-147 -114,570 597,659 721,260l-140 -1z"/>
   <path class="fil11" d="M4410 2935l23 0c-7,135 -67,128 -88,249 -55,331 -28,433 -247,712 -44,56 -55,82 -120,132 -77,60 -251,168 -335,197 -130,45 -442,90 -544,60 -88,-26 -36,28 -60,-48l-316 -55c-134,31 267,260 660,170 66,-15 113,-21 194,-35 265,-44 543,-266 671,-500 207,-376 113,-536 217,-720 88,-155 111,-179 0,-340l-75 7 -89 93 177 -45 -68 123z"/>
   <polygon class="fil12" points="6152,3016 6411,3025 6413,3868 6571,3873 6575,3030 6833,3023 6833,2900 6152,2901 "/>
   <path class="fil13" d="M8966 3218c55,34 38,-6 90,36 0,523 -70,620 350,618l-5 -136c-174,0 -183,14 -181,-163 1,-113 1,-226 1,-340l185 0 -5 -134 -179 -1 -9 -190 -152 -1 -5 170c-52,44 -33,3 -91,35l1 106z"/>
   <path class="fil14" d="M8447 3201c25,24 -40,32 90,32 1,583 -53,639 351,639l-5 -136c-168,0 -184,14 -182,-163 2,-113 2,-226 2,-339l184 -1 -3 -135 -181 0 -6 -189 -157 2 -3 187c-84,1 -90,-29 -90,103z"/>
   <path class="fil15" d="M3039 4237c24,76 -28,22 60,48 102,30 414,-15 544,-60 84,-29 258,-137 335,-197 65,-50 76,-76 120,-132 219,-279 192,-381 247,-712 21,-121 81,-114 88,-249l-23 0c-48,5 -55,52 -124,86 -13,385 -123,708 -321,904 -199,197 -530,327 -926,312z"/>
   <path class="fil16" d="M10573 3872c12,-208 -44,-519 76,-589 146,-87 157,80 157,-196 -115,11 -179,59 -229,124l-8 -113 -155 5 1 767 158 2z"/>
   <path class="fil17" d="M2733 4027c110,14 273,-72 351,-115 -32,-43 -22,-29 -107,-59 -112,-38 -218,-119 -248,-245 18,-6 80,-6 119,-39 -140,-40 -210,-130 -259,-274 -68,103 49,261 86,332 40,79 26,99 55,176 20,53 49,89 72,141 -27,28 4,-2 -33,24 -65,47 -35,4 -57,50l21 9z"/>
   <path class="fil18" d="M3471 3094l-35 -63c-157,18 -383,-119 -493,-222 -51,-46 -159,-140 -239,-73 82,183 448,317 660,362 1,0 57,10 58,10 71,2 29,13 49,-14z"/>
   <path class="fil19" d="M10089 3429c-22,-279 -378,-271 -420,-1l420 1z"/>
  </g>
 </g>
</svg>
