<?xml version="1.0" encoding="UTF-8"?>
<!DOCTYPE svg PUBLIC "-//W3C//DTD SVG 1.1//EN" "http://www.w3.org/Graphics/SVG/1.1/DTD/svg11.dtd">
<!-- Creator: CorelDRAW X8 -->
<svg xmlns="http://www.w3.org/2000/svg" xml:space="preserve" width="31.1048mm" height="31.0933mm" version="1.1" style="shape-rendering:geometricPrecision; text-rendering:geometricPrecision; image-rendering:optimizeQuality; fill-rule:evenodd; clip-rule:evenodd"
viewBox="0 0 864 864"
 xmlns:xlink="http://www.w3.org/1999/xlink">
 <defs>
  <style type="text/css">
   <![CDATA[
    .fil0 {fill:#7B61FF}
   ]]>
  </style>
 </defs>
 <g id="Capa_x0020_1">
  <metadata id="CorelCorpID_0Corel-Layer"/>
  <path class="fil0" d="M370 389c5,-37 -5,-63 10,-101 25,-66 93,-67 157,-64 21,1 15,17 15,37 0,15 4,42 -4,50 -15,11 -54,-5 -71,9 -12,11 -9,50 -7,70 17,2 65,-5 75,4 7,6 7,82 0,88 -11,9 -58,2 -75,4 -4,39 5,178 -3,200 -12,2 -82,4 -93,-1 -10,-15 0,-165 -4,-199 -21,-3 -48,4 -67,-2 -3,-14 -3,-78 0,-92 17,-5 47,0 67,-3zm-187 -311c-1,5 -24,20 -28,23l-54 54c-7,9 -14,22 -23,28 -9,20 -28,43 -46,87 -2,3 -2,3 -4,6 -1,3 -1,3 -3,5 1,17 -35,75 -22,199 3,36 10,63 21,94 13,39 32,68 35,77 7,7 28,45 58,76l17 17c4,5 2,2 3,6l13 8c30,26 82,57 85,60 8,1 34,14 44,18 16,7 31,11 48,15l58 12 29 1 56 -1 32 -3 60 -16c16,-7 33,-12 48,-19 11,-6 35,-20 43,-22 1,-1 1,-1 2,-2l4 -3c2,-2 3,-2 5,-4 5,-3 8,-5 11,-8 38,-25 70,-55 97,-91 8,-11 22,-36 32,-42 0,-8 7,-16 11,-24 4,-7 7,-14 11,-22 7,-15 11,-32 18,-46l14 -54 3 -27 2 -70 1 -6c0,-1 -12,-69 -14,-79 -5,-15 -9,-31 -15,-46 -5,-11 -18,-36 -18,-43 -2,-2 -1,-1 -4,-4 -1,-2 -1,-2 -3,-5 -1,-2 -2,-4 -4,-7l-31 -47c-36,-48 -86,-90 -139,-120l-31 -17c0,-1 -1,-1 -1,-1l-41 -15c-17,-3 -33,-9 -50,-12 -87,-16 -172,-9 -252,28 -14,6 -27,13 -39,19 -12,7 -26,18 -39,23z"/>
 </g>
</svg>
