<svg width="113" height="31" viewBox="0 0 113 31" fill="none" xmlns="http://www.w3.org/2000/svg">
<path d="M63.6229 7.14235C65.0884 7.14235 66.2764 5.95436 66.2764 4.4889C66.2764 3.02344 65.0884 1.83545 63.6229 1.83545C62.1575 1.83545 60.9695 3.02344 60.9695 4.4889C60.9695 5.95436 62.1575 7.14235 63.6229 7.14235Z" fill="url(#paint0_linear_805_4876)"/>
<path fill-rule="evenodd" clip-rule="evenodd" d="M58.2249 3.24609C59.6565 5.99481 60.4679 12.6086 62.1917 12.8784C63.005 13.0063 68.0785 6.34072 72.709 2.12524C67.0152 10.9948 63.9647 20.17 62.3151 28.7908C57.4123 21.585 56.973 12.4098 58.2249 3.24609Z" fill="url(#paint1_linear_805_4876)"/>
<path fill-rule="evenodd" clip-rule="evenodd" d="M8.27149 26.0107C6.59266 26.0107 5.17124 25.6932 4.00738 25.0584C2.84352 24.4235 1.95822 23.5348 1.35162 22.392C0.745019 21.2492 0.44165 19.909 0.44165 18.3713C0.44165 16.7913 0.755592 15.4228 1.38334 14.266C2.01109 13.1091 2.91753 12.2133 4.10254 11.5785C5.28769 10.9436 6.71249 10.6262 8.37722 10.6262C9.42125 10.6262 10.4123 10.7742 11.3504 11.0706C12.2886 11.3669 13.0539 11.7619 13.6465 12.2556L12.5885 14.8162C11.9394 14.3364 11.2764 13.9944 10.5992 13.7899C9.92212 13.5852 9.18851 13.483 8.39836 13.483C6.88884 13.483 5.7567 13.9027 5.00194 14.7422C4.24718 15.5815 3.8698 16.7913 3.8698 18.3713C3.8698 19.9654 4.25423 21.1717 5.02308 21.9899C5.79208 22.8082 6.93127 23.2173 8.44079 23.2173C9.2449 23.2173 10.0913 23.0903 10.9801 22.8364V19.9161H7.76357V17.5461H13.6889V24.868C12.9553 25.2348 12.1087 25.5169 11.1494 25.7144C10.1901 25.9119 9.2308 26.0107 8.27149 26.0107ZM84.0448 26.0107V11.0917H94.2658V13.6523H87.1767V17.1439H93.8003V19.7256H87.1767V23.4501H94.2658V26.0107H84.0448ZM69.3162 26.0107V11.0917H76.1303C77.7951 11.0917 79.0788 11.4938 79.9817 12.298C80.8846 13.1021 81.336 14.2237 81.336 15.6627C81.336 16.7771 81.0504 17.7047 80.479 18.4453C79.9077 19.186 79.0929 19.6904 78.0349 19.9584C78.7826 20.1842 79.3962 20.7274 79.876 21.5879L82.2883 26.0107H78.6697L76.0879 21.2492C75.8763 20.8683 75.6154 20.6039 75.305 20.4557C74.9947 20.3076 74.6279 20.2335 74.2045 20.2335H72.5963V26.0107H69.3162ZM96.8475 26.0107V11.0917H102.688C105.228 11.0917 107.196 11.7372 108.592 13.0279C109.989 14.3188 110.687 16.1564 110.687 18.5406C110.687 20.9249 109.989 22.7658 108.592 24.0637C107.196 25.3616 105.228 26.0107 102.688 26.0107H96.8475ZM16.588 25.7778V10.859H26.8091V13.4196H19.7199V16.9111H26.3435V19.4929H19.7199V23.2173H26.8091V25.7778H16.588ZM32.9459 25.7778V13.5676H28.0153V10.859H41.1566V13.5676H36.226V25.7778H32.9459ZM42.765 25.7778V10.859H46.0449V16.8477H52.986V10.859H56.2661V25.7778H52.986V19.5775H46.0449V25.7778H42.765ZM100.128 23.3231H102.498C105.672 23.3231 107.259 21.729 107.259 18.5406C107.259 15.3664 105.672 13.7792 102.498 13.7792H100.128V23.3231ZM72.5963 17.8634H75.5377C77.3012 17.8634 78.183 17.158 78.183 15.7473C78.183 14.3507 77.3012 13.6523 75.5377 13.6523H72.5963V17.8634Z" fill="url(#paint2_linear_805_4876)"/>
<defs>
<linearGradient id="paint0_linear_805_4876" x1="60.9931" y1="4.17436" x2="62.2452" y2="5.77647" gradientUnits="userSpaceOnUse">
<stop stop-color="#3A80F9"/>
<stop offset="1" stop-color="#0047C3"/>
</linearGradient>
<linearGradient id="paint1_linear_805_4876" x1="57.6978" y1="13.8793" x2="64.5212" y2="15.4583" gradientUnits="userSpaceOnUse">
<stop stop-color="#3A80F9"/>
<stop offset="1" stop-color="#0047C3"/>
</linearGradient>
<linearGradient id="paint2_linear_805_4876" x1="0.887341" y1="3.9993" x2="23.1081" y2="3.92737" gradientUnits="userSpaceOnUse">
<stop stop-color="#3A80F9"/>
<stop offset="1" stop-color="#3A16A9"/>
</linearGradient>
</defs>
</svg>
